{"title":"Max.2015.HC.HDRip.REPACK.XviD.AC3-MenaceIISociety","uid":12112783,"size":1178664478,"categoryP":"video","categoryS":"movies","magnet":"?xt=urn:btih:9e17789195c61e2521aeba340dad943eaaf3912c&amp;dn=Max.2015.HC.HDRip.REPACK.XviD.AC3-MenaceIISociety&amp;tr=udp%3A%2F%2Ftracker.openbittorrent.com%3A80&amp;tr=udp%3A%2F%2Fopen.demonii.com%3A1337&amp;tr=udp%3A%2F%2Ftracker.coppersurfer.tk%3A6969&amp;tr=udp%3A%2F%2Fexodus.desync.com%3A6969","seeders":8,"leechers":2,"uploader":"xxxlavalxxx","files":4,"time":1436574319,"description":" &lt;a href=&quot;http://extraimago.com/image/c55&quot; rel=&quot;nofollow&quot; target=&quot;_NEW&quot;&gt;http://extraimago.com/image/c55&lt;/a&gt;\n &lt;a href=&quot;\nhttp://www.imdb.com/title/tt3369806/&quot; rel=&quot;nofollow&quot; target=&quot;_NEW&quot;&gt;\nhttp://www.imdb.com/title/tt3369806/&lt;/a&gt;\n\n\nA dog that helped US Marines in Afghanistan returns to the U.S. and is adopted by his handler's family after suffering a traumatic experience.\n\nDirector: Boaz Yakin\nWriters: Boaz Yakin, Sheldon Lettich\nStars: Thomas Haden Church, Josh Wiggins, Luke Kleintank\nGenres: Adventure | Family\nCountry: USA\nLanguage: English\n\n\nSource: WEBDL [THANKS]\nRepack: fixed oos issue the last release had\nHardcoded chinese subs\n\nGeneral\nComplete name: Max.2015.HC.HDRip.REPACK.XviD.AC3-MenaceIISociety.avi\nFormat: AVI\nFormat/Info: Audio Video Interleave\nFile size: 1.06 GiB\nDuration: 1h 46mn\nOverall bit rate: 1 426 Kbps\n\nVideo\nID: 0\nFormat: MPEG-4 Visual\nFormat profile: Advanced Simple@L5\nFormat settings, BVOP: 2\nFormat settings, QPel: No\nFormat settings, GMC: No warppoints\nFormat settings, Matrix: Default (H.263)\nMuxing mode: Packed bitstream\nCodec ID: XVID\nCodec ID/Hint: XviD\nDuration: 1h 46mn\nBit rate: 1 099 Kbps\nWidth: 720 pixels\nHeight: 304 pixels\nDisplay aspect ratio: 2.35:1\nFrame rate: 25.000 fps\nColor space: YUV\nChroma subsampling: 4:2:0\nBit depth: 8 bits\nScan type: Progressive\nCompression mode: Lossy\nBits/(Pixel*Frame): 0.201\nStream size: 836 MiB (77%)\nWriting library: XviD 64\n\nAudio\nID: 1\nFormat: AC-3\nFormat/Info: Audio Coding 3\nMode extension: CM (complete main)\nFormat settings, Endianness: Big\nCodec ID: 2000\nDuration: 1h 46mn\nBit rate mode: Constant\nBit rate: 320 Kbps\nChannel(s): 2 channels\nChannel positions: Front: L R\nSampling rate: 44.1 KHz\nCompression mode: Lossy\nStream size: 243 MiB (22%)\nAlignment: Aligned on interleaves\nInterleave, duration: 70 ms (1.74 video frames)\nInterleave, preload duration: 208 ms \n\n &lt;a href=&quot;\nhttp://extraimago.com/image/c5D&quot; rel=&quot;nofollow&quot; target=&quot;_NEW&quot;&gt;\nhttp://extraimago.com/image/c5D&lt;/a&gt; &lt;a href=&quot;\nhttp://extraimago.com/image/c5F&quot; rel=&quot;nofollow&quot; target=&quot;_NEW&quot;&gt;\nhttp://extraimago.com/image/c5F&lt;/a&gt; &lt;a href=&quot;\nhttp://extraimago.com/image/c5H&quot; rel=&quot;nofollow&quot; target=&quot;_NEW&quot;&gt;\nhttp://extraimago.com/image/c5H&lt;/a&gt; &lt;a href=&quot;\nhttp://extraimago.com/image/c5k&quot; rel=&quot;nofollow&quot; target=&quot;_NEW&quot;&gt;\nhttp://extraimago.com/image/c5k&lt;/a&gt; &lt;a href=&quot;\nhttp://extraimago.com/image/c5o&quot; rel=&quot;nofollow&quot; target=&quot;_NEW&quot;&gt;\nhttp://extraimago.com/image/c5o&lt;/a&gt; &lt;a href=&quot;\nhttp://extraimago.com/image/c5t&quot; rel=&quot;nofollow&quot; target=&quot;_NEW&quot;&gt;\nhttp://extraimago.com/image/c5t&lt;/a&gt;","torrent":{"xt":"urn:btih:9e17789195c61e2521aeba340dad943eaaf3912c","amp;dn":"Max.2015.HC.HDRip.REPACK.XviD.AC3-MenaceIISociety","amp;tr":["udp%3A%2F%2Ftracker.openbittorrent.com%3A80","udp%3A%2F%2Fopen.demonii.com%3A1337","udp%3A%2F%2Ftracker.coppersurfer.tk%3A6969","udp%3A%2F%2Fexodus.desync.com%3A6969"],"infoHash":"9e17789195c61e2521aeba340dad943eaaf3912c","infoHashBuffer":{"type":"Buffer","data":[158,23,120,145,149,198,30,37,33,174,186,52,13,173,148,62,170,243,145,44]},"announce":[],"urlList":[]}}